<svg width="23" height="17" viewBox="0 0 25 19" fill="none" xmlns="http://www.w3.org/2000/svg">
<path d="M12.5 9.5L0 3.09245V1.58333C0 1.13802 0.154622 0.762804 0.463867 0.457682C0.773112 0.152561 1.13932 0 1.5625 0H23.4375C23.8607 0 24.2269 0.152561 24.5361 0.457682C24.8454 0.762804 25 1.13802 25 1.58333V3.09245L12.5 9.5ZM11.7188 11.0833H13.2812L25 4.92318V17.4167C25 17.8455 24.8454 18.2166 24.5361 18.5299C24.2269 18.8433 23.8607 19 23.4375 19H1.5625C1.13932 19 0.773112 18.8433 0.463867 18.5299C0.154622 18.2166 0 17.8455 0 17.4167V4.92318L11.7188 11.0833Z" fill="white"/>
</svg>
