<svg width="148" height="125" viewBox="0 0 148 125" fill="none" xmlns="http://www.w3.org/2000/svg">
<path d="M63.7827 111.62C99.0066 111.62 127.565 86.6328 127.565 55.8098C127.565 24.9869 99.0066 0 63.7827 0C28.5587 0 0 24.9869 0 55.8098C0 69.842 5.92381 82.6783 15.7065 92.4849C14.9331 100.585 12.3818 109.467 9.55943 116.132C8.92957 117.615 10.1494 119.274 11.736 119.018C29.7227 116.069 40.4143 111.54 45.0624 109.18C51.1689 110.809 57.4627 111.629 63.7827 111.62Z" fill="#606060"/>
<path fill-rule="evenodd" clip-rule="evenodd" d="M71.5512 112.919C79.0363 116.81 87.7778 119.045 97.1153 119.045C102.082 119.052 107.028 118.407 111.827 117.127C115.48 118.982 123.882 122.541 138.017 124.859C139.263 125.06 140.222 123.756 139.727 122.591C137.509 117.353 135.504 110.373 134.896 104.007C142.584 96.3009 147.239 86.2134 147.239 75.1861C147.239 60.5053 138.995 47.5092 126.337 39.5484C126.34 39.5583 126.342 39.5682 126.345 39.5782C126.741 41.1432 127.257 43.3209 127.734 45.7721C128.673 50.5943 129.523 56.7617 128.856 61.375C128.081 66.7306 127.154 71.0096 125.578 75.0769C123.998 79.154 121.799 82.9312 118.57 87.3335C112.622 95.4421 106.185 100.502 98.1076 105.117C92.349 108.408 85.0537 110.417 79.3114 111.605C76.4189 112.203 73.8767 112.602 72.0555 112.852C71.8808 112.875 71.7125 112.898 71.5512 112.919ZM68.9437 111.467C55.6934 103.574 46.9912 90.2692 46.9912 75.1861C46.9912 50.9636 69.4343 31.3275 97.1153 31.3275C106.682 31.3275 115.623 33.673 123.229 37.7427C121.823 38.1515 121.823 38.1513 121.823 38.1513L121.823 38.1513L121.824 38.1525L121.825 38.159L121.834 38.1878L121.868 38.3077C121.898 38.4146 121.943 38.5746 122 38.7824C122.114 39.1981 122.276 39.8046 122.467 40.5603C122.851 42.073 123.348 44.1759 123.808 46.5365C124.743 51.3379 125.459 56.9183 124.897 60.8022C124.142 66.0195 123.269 69.9645 121.848 73.6315C120.431 77.2886 118.434 80.7559 115.345 84.9677C109.803 92.5229 103.837 97.2365 96.1231 101.644C90.9171 104.619 84.115 106.526 78.501 107.688C75.7154 108.264 73.2648 108.648 71.5127 108.889C70.6372 109.008 69.9378 109.092 69.4601 109.145C69.2213 109.172 69.038 109.191 68.916 109.204C68.855 109.21 68.8093 109.214 68.7796 109.217L68.7473 109.22L68.7403 109.221L68.7391 109.221C68.7393 109.221 68.7395 109.221 68.9206 111.213C68.9286 111.301 68.9363 111.386 68.9437 111.467Z" fill="#606060"/>
</svg>
