<svg width="38" height="37" viewBox="0 0 38 37" fill="none" xmlns="http://www.w3.org/2000/svg">
<path d="M35.1581 8.55603C29.4738 -0.000282841 17.8683 -2.54405 8.86807 2.77474C0.104717 8.09353 -2.73745 19.6561 2.94689 28.2124L3.42058 28.9062L1.5258 35.8437L8.63122 33.9937L9.34176 34.4562C12.4208 36.075 15.7366 37 19.0525 37C22.6052 37 26.1579 36.075 29.2369 34.225C38.0003 28.6749 40.6056 17.3436 35.1581 8.55603V8.55603ZM30.1843 26.3624C29.2369 27.7499 28.0527 28.6749 26.3948 28.9062C25.4474 28.9062 24.2631 29.3687 19.5262 27.5187C15.4998 25.6687 12.1839 22.6624 9.81546 19.1936C8.39437 17.5749 7.68383 15.4936 7.44698 13.4123C7.44698 11.5623 8.15753 9.94354 9.34176 8.78729C9.81546 8.32478 10.2892 8.09353 10.7628 8.09353H11.9471C12.4208 8.09353 12.8945 8.09353 13.1313 9.01854C13.605 10.1748 14.7893 12.9498 14.7893 13.1811C15.0261 13.4123 15.0261 13.8748 14.7893 14.1061C15.0261 14.5686 14.7893 15.0311 14.5524 15.2623C14.3156 15.4936 14.0787 15.9561 13.8419 16.1873C13.3682 16.4186 13.1313 16.8811 13.3682 17.3436C14.3156 18.7311 15.4998 20.1186 16.684 21.2749C18.1051 22.4311 19.5262 23.3561 21.1841 24.0499C21.6578 24.2812 22.1315 24.2812 22.3684 23.8186C22.6052 23.3561 23.7895 22.1999 24.2631 21.7374C24.7368 21.2749 24.9737 21.2749 25.4474 21.5061L29.2369 23.3561C29.7106 23.5874 30.1843 23.8186 30.4212 24.0499C30.658 24.7437 30.658 25.6687 30.1843 26.3624V26.3624Z" fill="white"/>
</svg>
