<svg width="125" height="125" viewBox="0 0 125 125" fill="none" xmlns="http://www.w3.org/2000/svg">
<path fill-rule="evenodd" clip-rule="evenodd" d="M91.0519 74.8342C89.4938 74.0589 81.8552 70.323 80.4331 69.8026C79.011 69.2875 77.9758 69.0325 76.9353 70.5831C75.9001 72.1233 72.9252 75.6095 72.0206 76.6398C71.1109 77.6752 70.2064 77.8001 68.6536 77.03C67.1008 76.2495 62.092 74.6209 56.1578 69.3551C51.5412 65.2549 48.4198 60.1921 47.5153 58.6415C46.6108 57.0961 47.416 56.2584 48.195 55.4883C48.8956 54.7963 49.7478 53.6828 50.5269 52.7826C51.3059 51.8772 51.5621 51.232 52.0797 50.1966C52.6025 49.1663 52.3411 48.2661 51.949 47.4908C51.5621 46.7155 48.4564 39.1031 47.1598 36.0071C45.8998 32.9944 44.6188 33.4055 43.6673 33.3534C42.7575 33.3118 41.7223 33.3014 40.6871 33.3014C39.6519 33.3014 37.9683 33.6864 36.5462 35.237C35.1189 36.7824 31.1087 40.5236 31.1087 48.136C31.1087 55.7433 36.6717 63.0956 37.4507 64.131C38.2298 65.1613 48.4042 80.7816 63.9899 87.4783C67.702 89.0705 70.5933 90.0227 72.8467 90.7303C76.5693 91.9115 79.9573 91.745 82.6342 91.3443C85.6144 90.902 91.8257 87.6031 93.1223 83.9921C94.4137 80.381 94.4137 77.285 94.0268 76.6398C93.6399 75.9946 92.6047 75.6095 91.0466 74.8342H91.0519ZM62.7037 113.354H62.6828C53.4256 113.356 44.3384 110.879 36.3737 106.184L34.4915 105.071L14.927 110.18L20.1501 91.1986L18.9214 89.2526C13.7461 81.054 11.0072 71.5654 11.0214 61.8832C11.0318 33.5251 34.2144 10.4537 62.7246 10.4537C76.5275 10.4537 89.5043 15.8131 99.2604 25.5329C104.072 30.3021 107.887 35.9736 110.482 42.2193C113.077 48.465 114.402 55.1609 114.381 61.9196C114.37 90.2776 91.1878 113.354 62.7037 113.354ZM106.685 18.1494C100.924 12.3785 94.0698 7.80277 86.5193 4.68736C78.9688 1.57194 70.8722 -0.02121 62.6985 0.000213219C28.4318 0.000213219 0.533293 27.7599 0.522836 61.878C0.517608 72.7841 3.37752 83.4301 8.82024 92.8117L0 124.88L32.9596 116.273C42.0772 121.217 52.2945 123.808 62.6776 123.808H62.7037C96.9704 123.808 124.869 96.0481 124.879 61.9248C124.905 53.7935 123.31 45.7378 120.187 38.2239C117.063 30.71 112.474 23.8869 106.685 18.1494Z" fill="#606060"/>
</svg>
